<svg width="30" height="31" viewBox="0 0 30 31" fill="none" xmlns="http://www.w3.org/2000/svg">
<path d="M27.4556 0.26642C23.4979 2.26105 6.52795 10.8145 1.83916 13.1458C-1.30535 14.639 0.535489 16.0391 0.535489 16.0391C0.535489 16.0391 3.21971 17.1589 5.52084 17.9989C7.82165 18.8388 9.04877 17.9057 9.04877 17.9057L19.8629 9.03948C23.6976 5.86632 22.7774 8.47938 21.8568 9.59959C19.8629 12.0263 16.5649 15.8524 13.8038 18.9324C12.5767 20.2389 13.1901 21.3587 13.7273 21.9188C15.7212 23.9722 21.1669 28.172 21.4734 28.4519C23.0936 29.8476 26.2806 31.8567 26.7653 27.6119L28.6827 12.9595C29.2964 8.01321 29.9098 3.43997 29.9864 2.13345C30.2167 -1.04011 27.4556 0.26642 27.4556 0.26642Z" fill="#1B92D1"/>
</svg>
